nColumns=28
nRows=60
DataType=double
version=3
OpenSimVersion=4.1
endheader
time	ground_force_1_vx	ground_force_1_vy	ground_force_1_vz	ground_force_1_px	ground_force_1_py	ground_force_1_pz	ground_force_1_mx	ground_force_1_my	ground_force_1_mz	ground_force_2_vx	ground_force_2_vy	ground_force_2_vz	ground_force_2_px	ground_force_2_py	ground_force_2_pz	ground_force_2_mx	ground_force_2_my	ground_force_2_mz	ground_force_3_vx	ground_force_3_vy	ground_force_3_vz	ground_force_3_px	ground_force_3_py	ground_force_3_pz	ground_force_3_mx	ground_force_3_my	ground_force_3_mz
6.99	-19.6615	315.163	-38.0031	-0.213925	0.006	-0.435425	0	-0.544219	0	-18.6906	282.411	33.3805	-0.199117	0.006	-0.777515	0	1.3595	0	0	0	0	0	0	0	0	0	0
7	-19.5961	310.802	-36.7168	-0.213391	0.006	-0.435651	0	-0.525033	0	-19.2549	281.866	32.8765	-0.198053	0.006	-0.777531	0	1.32245	0	0	0	0	0	0	0	0	0	0
7.01	-20.09	307.189	-35.7244	-0.212517	0.006	-0.435889	0	-0.444791	0	-20.2689	281.203	32.5468	-0.196458	0.006	-0.777883	0	1.2897	0	0	0	0	0	0	0	0	0	0
7.02	-21.64	303.182	-35.0606	-0.211149	0.006	-0.436454	0	-0.327936	0	-22.3913	280.861	32.4874	-0.19433	0.006	-0.778322	0	1.21683	0	0	0	0	0	0	0	0	0	0
7.03	-23.6347	298.596	-34.4179	-0.209473	0.006	-0.43689	0	-0.238842	0	-25.4925	280.252	32.5027	-0.191916	0.006	-0.778851	0	1.14072	0	0	0	0	0	0	0	0	0	0
7.04	-25.3215	292.642	-33.429	-0.207791	0.006	-0.437232	0	-0.164747	0	-29.0969	278.997	32.5007	-0.189567	0.006	-0.779217	0	1.03756	0	0	0	0	0	0	0	0	0	0
7.05	-26.8947	285.608	-32.1998	-0.206136	0.006	-0.437837	0	-0.0865655	0	-32.3263	276.775	32.6179	-0.187398	0.006	-0.779304	0	0.890252	0	0	0	0	0	0	0	0	0	0
7.06	-29.2154	279.202	-30.8477	-0.204475	0.006	-0.438654	0	-0.0101417	0	-34.5457	273.811	32.6553	-0.185424	0.006	-0.779543	0	0.726942	0	0	0	0	0	0	0	0	0	0
7.07	-31.528	273.544	-29.5045	-0.203046	0.006	-0.43951	0	0.0772344	0	-36.0024	270.174	32.4025	-0.183601	0.006	-0.779967	0	0.566485	0	0	0	0	0	0	0	0	0	0
7.08	-32.5948	266.613	-28.022	-0.201928	0.006	-0.440324	0	0.16131	0	-36.4975	265.44	31.7719	-0.182171	0.006	-0.78021	0	0.447791	0	0	0	0	0	0	0	0	0	0
7.09	-32.2476	257.277	-26.2041	-0.201101	0.006	-0.441321	0	0.247595	0	-35.1455	258.78	30.5544	-0.18141	0.006	-0.780105	0	0.364466	0	0	0	0	0	0	0	0	0	0
7.1	-31.7021	246.953	-24.4065	-0.200387	0.006	-0.442543	0	0.330831	0	-32.0415	249.821	28.6787	-0.180888	0.006	-0.779826	0	0.27538	0	0	0	0	0	0	0	0	0	0
7.11	-32.4706	236.746	-22.7808	-0.199862	0.006	-0.443686	0	0.4305	0	-28.6184	238.456	26.3867	-0.180314	0.006	-0.779169	0	0.180855	0	0	0	0	0	0	0	0	0	0
7.12	-33.4224	224.782	-21.0367	-0.199885	0.006	-0.444895	0	0.562071	0	-26.3208	224.877	24.1147	-0.17961	0.006	-0.778563	0	0.0687388	0	0	0	0	0	0	0	0	0	0
7.13	-32.3862	209.655	-19.1042	-0.200767	0.006	-0.446297	0	0.651198	0	-25.5853	208.841	22.0418	-0.178726	0.006	-0.778175	0	-0.11264	0	0	0	0	0	0	0	0	0	0
7.14	-29.6361	193.569	-17.1513	-0.202732	0.006	-0.447948	0	0.693761	0	-27.0987	191.065	20.5765	-0.177534	0.006	-0.777241	0	-0.38566	0	0	0	0	0	0	0	0	0	0
7.15	-26.9901	179.236	-15.3274	-0.206091	0.006	-0.449814	0	0.701751	0	-29.8753	173.318	19.6866	-0.176198	0.006	-0.77591	0	-0.655074	0	0	0	0	0	0	0	0	0	0
7.16	-26.616	169.684	-14.0891	-0.211137	0.006	-0.451729	0	0.718432	0	-30.4548	156.06	18.5324	-0.176049	0.006	-0.774071	0	-0.893833	0	0	0	0	0	0	0	0	0	0
7.17	-27.116	164.522	-13.4696	-0.218494	0.006	-0.453409	0	0.762713	0	-27.8189	139.484	16.687	-0.178134	0.006	-0.771312	0	-1.01488	0	0	0	0	0	0	0	0	0	0
7.18	-25.2104	159.021	-12.7871	-0.228089	0.006	-0.45539	0	0.78729	0	-23.2691	123.689	14.3896	-0.182634	0.006	-0.767584	0	-1.00369	0	0	0	0	0	0	0	0	0	0
7.19	-20.2729	151.198	-11.1736	-0.239334	0.006	-0.458524	0	0.760442	0	-18.3682	108.838	11.8717	-0.18932	0.006	-0.762763	0	-0.870895	0	0	0	0	0	0	0	0	0	0
7.2	-13.4683	143.573	-8.7053	-0.25166	0.006	-0.46223	0	0.691981	0	-14.7916	96.6406	9.71631	-0.196622	0.006	-0.75699	0	-0.760573	0	0	0	0	0	0	0	0	0	0
7.21	-7.42222	141.341	-7.38583	-0.263263	0.006	-0.464569	0	0.550347	0	-13.2142	89.0684	8.6017	-0.204526	0.006	-0.75207	0	-0.75617	0	0	0	0	0	0	0	0	0	0
7.22	-4.19349	146.516	-8.77388	-0.27261	0.006	-0.464272	0	0.34423	0	-12.2918	85.8065	8.24009	-0.213187	0.006	-0.74892	0	-0.714295	0	0	0	0	0	0	0	0	0	0
7.23	-2.23891	151.459	-9.30034	-0.280374	0.006	-0.463977	0	0.339122	0	-10.458	85.797	8.18424	-0.223742	0.006	-0.746408	0	-0.61436	0	0	0	0	0	0	0	0	0	0
7.24	-0.103869	151.139	-7.4218	-0.287931	0.006	-0.465531	0	0.454851	0	-6.16712	93.3841	10.1139	-0.239761	0.006	-0.746581	0	-0.421642	0	0	0	0	0	0	0	0	0	0
7.25	1.85077	154.349	-6.04589	-0.295216	0.006	-0.466903	0	0.481257	0	1.856	117.829	15.8709	-0.26048	0.006	-0.751798	0	-0.0452339	0	0	0	0	0	0	0	0	0	0
7.26	3.12972	171.76	-6.64017	-0.300037	0.006	-0.465824	0	0.437892	0	8.84861	154.948	19.7233	-0.275905	0.006	-0.7557	0	0.456037	0	0	0	0	0	0	0	0	0	0
7.27	3.11503	197.826	-8.312	-0.302387	0.006	-0.463721	0	0.405838	0	10.5264	195.381	16.0419	-0.284956	0.006	-0.755378	0	0.830566	0	0	0	0	0	0	0	0	0	0
7.28	2.49219	220.254	-10.0325	-0.304062	0.006	-0.461889	0	0.395051	0	7.57136	226.519	12.8441	-0.290045	0.006	-0.754648	0	0.978827	0	0	0	0	0	0	0	0	0	0
7.29	3.03273	237.37	-11.6332	-0.306061	0.006	-0.460566	0	0.341116	0	2.23723	244.14	15.5177	-0.293173	0.006	-0.7545	0	1.21764	0	0	0	0	0	0	0	0	0	0
7.3	5.36079	253.377	-13.6167	-0.308301	0.006	-0.459391	0	0.228836	0	-2.24292	258.406	18.8512	-0.295282	0.006	-0.754858	0	1.37867	0	0	0	0	0	0	0	0	0	0
7.31	8.10289	268.774	-16.4844	-0.310142	0.006	-0.458162	0	0.0860307	0	-6.69494	273.286	20.5681	-0.296187	0.006	-0.755239	0	1.35207	0	0	0	0	0	0	0	0	0	0
7.32	8.73343	282.632	-19.6279	-0.311067	0.006	-0.457118	0	0.00907435	0	-11.4217	288.319	23.0359	-0.296434	0.006	-0.755836	0	1.38979	0	0	0	0	0	0	0	0	0	0
7.33	6.95654	292.681	-21.1373	-0.311332	0.006	-0.456459	0	0.0636593	0	-15.2329	304.559	26.5365	-0.296517	0.006	-0.756633	0	1.55597	0	0	0	0	0	0	0	0	0	0
7.34	4.7575	297.932	-20.0966	-0.311706	0.006	-0.456144	0	0.187775	0	-17.9758	320.626	28.9675	-0.296657	0.006	-0.756983	0	1.65242	0	0	0	0	0	0	0	0	0	0
7.35	3.47145	303.423	-18.0026	-0.312223	0.006	-0.456134	0	0.29215	0	-19.721	333.894	29.916	-0.297185	0.006	-0.756868	0	1.67055	0	0	0	0	0	0	0	0	0	0
7.36	2.31374	310.301	-16.6016	-0.312539	0.006	-0.45604	0	0.398073	0	-19.9926	342.879	30.1453	-0.298185	0.006	-0.756735	0	1.68672	0	0	0	0	0	0	0	0	0	0
7.37	0.700359	315.028	-16.3222	-0.312757	0.006	-0.455807	0	0.519682	0	-18.4202	345.949	29.5467	-0.299516	0.006	-0.756578	0	1.73172	0	0	0	0	0	0	0	0	0	0
7.38	-0.500684	316.926	-16.641	-0.313206	0.006	-0.455477	0	0.681201	0	-15.8201	343.929	28.1341	-0.301026	0.006	-0.756078	0	1.81795	0	0	0	0	0	0	0	0	0	0
7.39	-0.501691	319.561	-17.2849	-0.3138	0.006	-0.454978	0	0.873395	0	-14.0329	338.495	26.4631	-0.302279	0.006	-0.755256	0	1.9311	0	0	0	0	0	0	0	0	0	0
7.4	0.417402	326.707	-18.2751	-0.314266	0.006	-0.454395	0	1.04042	0	-14.1429	332.85	25.1344	-0.303151	0.006	-0.754652	0	2.07339	0	0	0	0	0	0	0	0	0	0
7.41	0.732415	337.134	-19.6056	-0.314488	0.006	-0.4537	0	1.14959	0	-16.2669	332.473	25.0454	-0.303501	0.006	-0.75452	0	2.24965	0	0	0	0	0	0	0	0	0	0
7.42	-0.540797	347.689	-21.4537	-0.314121	0.006	-0.452935	0	1.18928	0	-20.1623	338.595	26.1991	-0.303334	0.006	-0.754619	0	2.4186	0	0	0	0	0	0	0	0	0	0
7.43	-2.85892	354.702	-23.0056	-0.313643	0.006	-0.452324	0	1.24865	0	-24.3208	347.226	27.8117	-0.302902	0.006	-0.754803	0	2.52892	0	0	0	0	0	0	0	0	0	0
7.44	-4.65988	356.641	-23.5898	-0.31364	0.006	-0.452007	0	1.3426	0	-26.908	356.029	29.0831	-0.302648	0.006	-0.754889	0	2.60566	0	0	0	0	0	0	0	0	0	0
7.45	-4.76787	355.234	-23.7058	-0.314212	0.006	-0.451931	0	1.38781	0	-27.0564	362.896	28.9553	-0.303102	0.006	-0.754671	0	2.58042	0	0	0	0	0	0	0	0	0	0
7.46	-4.287	353.77	-24.1188	-0.315073	0.006	-0.451695	0	1.40086	0	-25.0966	365.787	27.6149	-0.304549	0.006	-0.753976	0	2.47947	0	0	0	0	0	0	0	0	0	0
7.47	-4.54828	354.781	-24.8213	-0.315796	0.006	-0.451448	0	1.43923	0	-22.4032	363.216	25.9607	-0.306177	0.006	-0.753227	0	2.39705	0	0	0	0	0	0	0	0	0	0
7.48	-5.55369	358.811	-25.5545	-0.316166	0.006	-0.451217	0	1.5235	0	-19.4979	355.443	23.8469	-0.307843	0.006	-0.752315	0	2.31744	0	0	0	0	0	0	0	0	0	0
7.49	-6.95712	365.19	-26.0201	-0.316311	0.006	-0.451117	0	1.67015	0	-16.8583	349.04	21.6132	-0.309238	0.006	-0.751351	0	2.20729	0	0	0	0	0	0	0	0	0	0
7.5	-8.40909	372.404	-26.0992	-0.316425	0.006	-0.450944	0	1.86477	0	-15.0474	348.814	19.9515	-0.309954	0.006	-0.75097	0	2.07222	0	0	0	0	0	0	0	0	0	0
7.51	-10.101	378.245	-26.0899	-0.316357	0.006	-0.450766	0	2.03758	0	-14.2266	352.083	18.8985	-0.310495	0.006	-0.75078	0	1.99015	0	0	0	0	0	0	0	0	0	0
7.52	-12.7753	381.882	-26.1595	-0.316171	0.006	-0.45053	0	2.19028	0	-14.4372	357.639	18.4984	-0.310942	0.006	-0.750554	0	1.98531	0	0	0	0	0	0	0	0	0	0
7.53	-16.2628	384.604	-26.4013	-0.315878	0.006	-0.450246	0	2.30946	0	-16.1575	364.362	18.61	-0.310994	0.006	-0.750413	0	2.0102	0	0	0	0	0	0	0	0	0	0
7.54	-19.6311	386.941	-26.8202	-0.315525	0.006	-0.449807	0	2.40771	0	-18.9609	368.858	18.5173	-0.310834	0.006	-0.750144	0	1.98317	0	0	0	0	0	0	0	0	0	0
7.55	-21.8362	389.372	-27.1996	-0.315357	0.006	-0.449543	0	2.45229	0	-21.3785	370.078	17.8158	-0.310982	0.006	-0.749765	0	1.93348	0	0	0	0	0	0	0	0	0	0
7.56	-22.8162	392.184	-27.2114	-0.315438	0.006	-0.449531	0	2.47676	0	-22.4403	369.322	16.9779	-0.311517	0.006	-0.749454	0	1.92773	0	0	0	0	0	0	0	0	0	0
7.57	-23.3053	393.258	-26.4811	-0.315678	0.006	-0.449573	0	2.54093	0	-22.8303	368.215	16.4626	-0.31216	0.006	-0.749183	0	1.94942	0	0	0	0	0	0	0	0	0	0
7.58	-23.4793	391.955	-25.3721	-0.316311	0.006	-0.449779	0	2.57153	0	-23.2211	367.477	16.3674	-0.312801	0.006	-0.748968	0	1.97284	0	0	0	0	0	0	0	0	0	0
